<?xml version="1.0" encoding="UTF-8"?>
<svg width="100%" viewBox="0 0 1160 640" xmlns="http://www.w3.org/2000/svg" role="img" aria-labelledby="title desc">
  <title id="title">Awakening from the Meaning Crisis — Ep. 1</title>
  <desc id="desc">Converging pressures, a named wound, and openings into inquiry</desc>
  <defs>
    <linearGradient id="bg" x1="0" y1="0" x2="0" y2="1">
      <stop offset="0%" stop-color="#f8f3ea" />
      <stop offset="100%" stop-color="#f4efe6" />
    </linearGradient>
  </defs>
  <rect x="0" y="0" width="1160" height="640" fill="url(#bg)" />
  <rect x="20" y="18" width="1120" height="72" rx="18" fill="rgba(255,255,255,0.58)" stroke="rgba(96,74,49,0.08)" />
  <text x="40" y="52" font-family="Avenir Next, Segoe UI, sans-serif" font-size="28" font-weight="700" fill="#1d1b19">Awakening from the Meaning Crisis — Ep. 1</text>
  <text x="40" y="76" font-family="Avenir Next, Segoe UI, sans-serif" font-size="14" fill="#6f675f">Converging pressures, a named wound, and openings into inquiry</text>

  
    <rect x="37" y="62" width="446" height="379" rx="34" fill="rgba(210, 192, 170, 0.11)" stroke="rgba(124, 105, 85, 0.18)" />
    <text x="51" y="52" font-family="Avenir Next, Segoe UI, sans-serif" font-size="12" font-weight="700" letter-spacing="0.08em" text-transform="uppercase" fill="#6f675f">Attraction field</text>

    <rect x="617" y="62" width="446" height="379" rx="34" fill="rgba(210, 192, 170, 0.11)" stroke="rgba(124, 105, 85, 0.18)" />
    <text x="631" y="52" font-family="Avenir Next, Segoe UI, sans-serif" font-size="12" font-weight="700" letter-spacing="0.08em" text-transform="uppercase" fill="#6f675f">Collapse field</text>

    <rect x="117" y="522" width="866" height="156" rx="34" fill="rgba(210, 192, 170, 0.11)" stroke="rgba(124, 105, 85, 0.18)" />
    <text x="131" y="512" font-family="Avenir Next, Segoe UI, sans-serif" font-size="12" font-weight="700" letter-spacing="0.08em" text-transform="uppercase" fill="#6f675f">Openings into inquiry</text>

  <path d="M 260 140 C 260 220, 550 220, 550 300" fill="none" stroke="#7f756a" stroke-width="1.9" opacity="0.88" />
<path d="M 840 140 C 840 220, 550 220, 550 300" fill="none" stroke="#7f756a" stroke-width="1.9" opacity="0.88" />
<path d="M 160 280 C 160 210, 260 210, 260 140" fill="none" stroke="#7f756a" stroke-width="1.9" opacity="0.88" />
<path d="M 360 280 C 360 210, 260 210, 260 140" fill="none" stroke="#7f756a" stroke-width="1.9" opacity="0.88" />
<path d="M 260 380 C 260 260, 260 260, 260 140" fill="none" stroke="#7f756a" stroke-width="1.9" opacity="0.88" />
<path d="M 740 280 C 740 210, 840 210, 840 140" fill="none" stroke="#7f756a" stroke-width="1.9" opacity="0.88" />
<path d="M 940 280 C 940 210, 840 210, 840 140" fill="none" stroke="#7f756a" stroke-width="1.9" opacity="0.88" />
<path d="M 840 380 C 840 260, 840 260, 840 140" fill="none" stroke="#7f756a" stroke-width="1.9" opacity="0.88" />
<path d="M 550 300 C 550 450, 260 450, 260 600" fill="none" stroke="#7f756a" stroke-width="1.9" opacity="0.88" />
<path d="M 550 300 C 550 450, 550 450, 550 600" fill="none" stroke="#7f756a" stroke-width="1.9" opacity="0.88" />
<path d="M 550 300 C 550 450, 840 450, 840 600" fill="none" stroke="#7f756a" stroke-width="1.9" opacity="0.88" />

  
    <rect x="295" y="462" width="510" height="36" rx="12" fill="rgba(255, 252, 245, 0.94)" stroke="rgba(96,74,49,0.06)" />
    <text x="550" y="485" text-anchor="middle" font-family="Iowan Old Style, Palatino Linotype, Georgia, serif" font-size="14" fill="#1d1b19">The meaning crisis is what you feel when you no longer feel at home in the world.</text>

  
    <g>
      <rect x="145" y="94" width="230" height="92" rx="18" fill="#dde5ef" stroke="rgba(65,49,34,0.08)" />
      <text x="161" y="112" font-family="Avenir Next, Segoe UI, sans-serif" font-size="9" font-weight="700" letter-spacing="0.09em" fill="#6f675f">CONCEPT</text>
      <text x="161" y="134" font-family="Avenir Next, Segoe UI, sans-serif" font-size="15" font-weight="700" fill="#1d1b19">Light Convergence</text>
      <text x="161" y="155" font-family="Iowan Old Style, Palatino Linotype, Georgia, serif" font-size="12" fill="#544c45">what people reach for when</text><text x="161" y="170" font-family="Iowan Old Style, Palatino Linotype, Georgia, serif" font-size="12" fill="#544c45">they feel the hunger for</text>
    </g>

    <g>
      <rect x="725" y="94" width="230" height="92" rx="18" fill="#dde5ef" stroke="rgba(65,49,34,0.08)" />
      <text x="741" y="112" font-family="Avenir Next, Segoe UI, sans-serif" font-size="9" font-weight="700" letter-spacing="0.09em" fill="#6f675f">CONCEPT</text>
      <text x="741" y="134" font-family="Avenir Next, Segoe UI, sans-serif" font-size="15" font-weight="700" fill="#1d1b19">Dark Convergence</text>
      <text x="741" y="155" font-family="Iowan Old Style, Palatino Linotype, Georgia, serif" font-size="12" fill="#544c45">what people flee from when</text><text x="741" y="170" font-family="Iowan Old Style, Palatino Linotype, Georgia, serif" font-size="12" fill="#544c45">disconnection intensifies</text>
    </g>

    <g>
      <rect x="65" y="251" width="190" height="58" rx="18" fill="#dce8dc" stroke="rgba(65,49,34,0.08)" />
      <text x="81" y="269" font-family="Avenir Next, Segoe UI, sans-serif" font-size="9" font-weight="700" letter-spacing="0.09em" fill="#6f675f">PROJECT</text>
      <text x="81" y="291" font-family="Avenir Next, Segoe UI, sans-serif" font-size="15" font-weight="700" fill="#1d1b19">mindfulness revolution</text>
      
    </g>

    <g>
      <rect x="265" y="251" width="190" height="58" rx="18" fill="#dce8dc" stroke="rgba(65,49,34,0.08)" />
      <text x="281" y="269" font-family="Avenir Next, Segoe UI, sans-serif" font-size="9" font-weight="700" letter-spacing="0.09em" fill="#6f675f">PROJECT</text>
      <text x="281" y="291" font-family="Avenir Next, Segoe UI, sans-serif" font-size="15" font-weight="700" fill="#1d1b19">return to wisdom traditions</text>
      
    </g>

    <g>
      <rect x="165" y="351" width="190" height="58" rx="18" fill="#dce8dc" stroke="rgba(65,49,34,0.08)" />
      <text x="181" y="369" font-family="Avenir Next, Segoe UI, sans-serif" font-size="9" font-weight="700" letter-spacing="0.09em" fill="#6f675f">PROJECT</text>
      <text x="181" y="391" font-family="Avenir Next, Segoe UI, sans-serif" font-size="15" font-weight="700" fill="#1d1b19">search for meaning in life</text>
      
    </g>

    <g>
      <rect x="645" y="251" width="190" height="58" rx="18" fill="#f0dfd4" stroke="rgba(65,49,34,0.08)" />
      <text x="661" y="269" font-family="Avenir Next, Segoe UI, sans-serif" font-size="9" font-weight="700" letter-spacing="0.09em" fill="#6f675f">SYMPTOM</text>
      <text x="661" y="291" font-family="Avenir Next, Segoe UI, sans-serif" font-size="15" font-weight="700" fill="#1d1b19">mental-health crisis</text>
      
    </g>

    <g>
      <rect x="845" y="251" width="190" height="58" rx="18" fill="#f0dfd4" stroke="rgba(65,49,34,0.08)" />
      <text x="861" y="269" font-family="Avenir Next, Segoe UI, sans-serif" font-size="9" font-weight="700" letter-spacing="0.09em" fill="#6f675f">SYMPTOM</text>
      <text x="861" y="291" font-family="Avenir Next, Segoe UI, sans-serif" font-size="15" font-weight="700" fill="#1d1b19">pervasive bullshit</text>
      
    </g>

    <g>
      <rect x="745" y="351" width="190" height="58" rx="18" fill="#f0dfd4" stroke="rgba(65,49,34,0.08)" />
      <text x="761" y="369" font-family="Avenir Next, Segoe UI, sans-serif" font-size="9" font-weight="700" letter-spacing="0.09em" fill="#6f675f">SYMPTOM</text>
      <text x="761" y="391" font-family="Avenir Next, Segoe UI, sans-serif" font-size="15" font-weight="700" fill="#1d1b19">nihilism and despair</text>
      
    </g>

    <g>
      <rect x="435" y="254" width="230" height="92" rx="18" fill="#ece2f3" stroke="rgba(65,49,34,0.08)" />
      <text x="451" y="272" font-family="Avenir Next, Segoe UI, sans-serif" font-size="9" font-weight="700" letter-spacing="0.09em" fill="#6f675f">CLAIM</text>
      <text x="451" y="294" font-family="Avenir Next, Segoe UI, sans-serif" font-size="15" font-weight="700" fill="#1d1b19">The Meaning Crisis</text>
      <text x="451" y="315" font-family="Iowan Old Style, Palatino Linotype, Georgia, serif" font-size="12" fill="#544c45">one diagnosis beneath many</text><text x="451" y="330" font-family="Iowan Old Style, Palatino Linotype, Georgia, serif" font-size="12" fill="#544c45">symptoms</text>
    </g>

    <g>
      <rect x="145" y="554" width="230" height="92" rx="18" fill="#f3dddd" stroke="rgba(65,49,34,0.08)" />
      <text x="161" y="572" font-family="Avenir Next, Segoe UI, sans-serif" font-size="9" font-weight="700" letter-spacing="0.09em" fill="#6f675f">QUESTION</text>
      <text x="161" y="594" font-family="Avenir Next, Segoe UI, sans-serif" font-size="15" font-weight="700" fill="#1d1b19">What is meaning?</text>
      <text x="161" y="615" font-family="Iowan Old Style, Palatino Linotype, Georgia, serif" font-size="12" fill="#544c45">its structure and function</text>
    </g>

    <g>
      <rect x="435" y="554" width="230" height="92" rx="18" fill="#f3dddd" stroke="rgba(65,49,34,0.08)" />
      <text x="451" y="572" font-family="Avenir Next, Segoe UI, sans-serif" font-size="9" font-weight="700" letter-spacing="0.09em" fill="#6f675f">QUESTION</text>
      <text x="451" y="594" font-family="Avenir Next, Segoe UI, sans-serif" font-size="15" font-weight="700" fill="#1d1b19">Why do we hunger?</text>
      <text x="451" y="615" font-family="Iowan Old Style, Palatino Linotype, Georgia, serif" font-size="12" fill="#544c45">its role in cognition and</text><text x="451" y="630" font-family="Iowan Old Style, Palatino Linotype, Georgia, serif" font-size="12" fill="#544c45">life</text>
    </g>

    <g>
      <rect x="725" y="554" width="230" height="92" rx="18" fill="#f3dddd" stroke="rgba(65,49,34,0.08)" />
      <text x="741" y="572" font-family="Avenir Next, Segoe UI, sans-serif" font-size="9" font-weight="700" letter-spacing="0.09em" fill="#6f675f">QUESTION</text>
      <text x="741" y="594" font-family="Avenir Next, Segoe UI, sans-serif" font-size="15" font-weight="700" fill="#1d1b19">Cultivating wisdom</text>
      <text x="741" y="615" font-family="Iowan Old Style, Palatino Linotype, Georgia, serif" font-size="12" fill="#544c45">how awakening becomes</text><text x="741" y="630" font-family="Iowan Old Style, Palatino Linotype, Georgia, serif" font-size="12" fill="#544c45">practice</text>
    </g>
</svg>