<?xml version="1.0" encoding="UTF-8"?>
<svg width="100%" viewBox="0 0 1652 906" xmlns="http://www.w3.org/2000/svg" role="img">
  <defs>
    <linearGradient id="bg" x1="0" y1="0" x2="0" y2="1">
      <stop offset="0%" stop-color="#f8f3ea" />
      <stop offset="100%" stop-color="#f4efe6" />
    </linearGradient>
  </defs>
  <rect x="0" y="0" width="1652" height="906" fill="url(#bg)" />
  <rect x="20" y="18" width="1612" height="72" rx="18" fill="rgba(255,255,255,0.58)" stroke="rgba(96,74,49,0.08)" />
  <text x="40" y="52" font-family="Avenir Next, Segoe UI, sans-serif" font-size="28" font-weight="700" fill="#1d1b19">Awakening from the Meaning Crisis — Ep. 1</text>
  <text x="40" y="76" font-family="Avenir Next, Segoe UI, sans-serif" font-size="14" fill="#6f675f">Converging pressures, a named wound, and openings into inquiry</text>


        <rect x="838" y="198" width="738" height="288" rx="34" fill="rgba(210, 192, 170, 0.11)" stroke="rgba(124, 105, 85, 0.18)" />
        <text x="852" y="188" font-family="Avenir Next, Segoe UI, sans-serif" font-size="12" font-weight="700" letter-spacing="0.08em" text-transform="uppercase" fill="#6f675f">Attraction field</text>
      

        <rect x="88" y="128" width="738" height="288" rx="34" fill="rgba(210, 192, 170, 0.11)" stroke="rgba(124, 105, 85, 0.18)" />
        <text x="102" y="118" font-family="Avenir Next, Segoe UI, sans-serif" font-size="12" font-weight="700" letter-spacing="0.08em" text-transform="uppercase" fill="#6f675f">Collapse field</text>
      

        <rect x="298.8333333333333" y="570" width="858" height="210" rx="34" fill="rgba(210, 192, 170, 0.11)" stroke="rgba(124, 105, 85, 0.18)" />
        <text x="312.8333333333333" y="560" font-family="Avenir Next, Segoe UI, sans-serif" font-size="12" font-weight="700" letter-spacing="0.08em" text-transform="uppercase" fill="#6f675f">Openings into inquiry</text>
      
<path d="M 1207 462 L 1207 467 Q 1207 472, 1202 472 L 538.6666666666666 472 Q 533.6666666666666 472, 533.6666666666666 477 L 533.6666666666666 482" fill="none" stroke="#7f756a" stroke-width="1.9" opacity="0.88" />
<path d="M 457 392 L 457 482" fill="none" stroke="#7f756a" stroke-width="1.9" opacity="0.88" />
<path d="M 1457 350 L 1457 355 Q 1457 360, 1452 360 L 1269.5 360 Q 1264.5 360, 1264.5 365 L 1264.5 370" fill="none" stroke="#7f756a" stroke-width="1.9" opacity="0.88" />
<path d="M 1207 280 L 1207 370" fill="none" stroke="#7f756a" stroke-width="1.9" opacity="0.88" />
<path d="M 957 350 L 957 355 Q 957 360, 962 360 L 1144.5 360 Q 1149.5 360, 1149.5 365 L 1149.5 370" fill="none" stroke="#7f756a" stroke-width="1.9" opacity="0.88" />
<path d="M 707 280 L 707 285 Q 707 290, 702 290 L 519.5 290 Q 514.5 290, 514.5 295 L 514.5 300" fill="none" stroke="#7f756a" stroke-width="1.9" opacity="0.88" />
<path d="M 457 210 L 457 300" fill="none" stroke="#7f756a" stroke-width="1.9" opacity="0.88" />
<path d="M 207 280 L 207 285 Q 207 290, 212 290 L 394.5 290 Q 399.5 290, 399.5 295 L 399.5 300" fill="none" stroke="#7f756a" stroke-width="1.9" opacity="0.88" />
<path d="M 495.3333333333333 574 L 495.3333333333333 630 Q 495.3333333333333 654, 519.3333333333333 654 L 722.8333333333333 654 Q 727.8333333333333 654, 727.8333333333333 659 L 727.8333333333333 664" fill="none" stroke="#7f756a" stroke-width="1.9" opacity="0.88" />
<path d="M 552.8333333333333 574 L 552.8333333333333 579 Q 552.8333333333333 584, 557.8333333333333 584 L 1012.8333333333333 584 Q 1017.8333333333333 584, 1017.8333333333333 589 L 1017.8333333333333 594" fill="none" stroke="#7f756a" stroke-width="1.9" opacity="0.88" />
<path d="M 437.8333333333333 574 L 437.8333333333333 664" fill="none" stroke="#7f756a" stroke-width="1.9" opacity="0.88" />

      <g>
        <rect x="1092" y="370" width="230" height="92" rx="18" fill="#dde5ef" stroke="rgba(65,49,34,0.08)" />
        <text x="1108" y="388" font-family="Avenir Next, Segoe UI, sans-serif" font-size="9" font-weight="700" letter-spacing="0.09em" fill="#6f675f">CONCEPT</text>
        <text x="1108" y="410" font-family="Avenir Next, Segoe UI, sans-serif" font-size="15" font-weight="700" fill="#1d1b19">Light Convergence</text>
        <text x="1108" y="431" font-family="Iowan Old Style, Palatino Linotype, Georgia, serif" font-size="12" fill="#544c45">what people reach for when</text><text x="1108" y="446" font-family="Iowan Old Style, Palatino Linotype, Georgia, serif" font-size="12" fill="#544c45">they feel the hunger for</text>
      </g>
    

      <g>
        <rect x="342" y="300" width="230" height="92" rx="18" fill="#dde5ef" stroke="rgba(65,49,34,0.08)" />
        <text x="358" y="318" font-family="Avenir Next, Segoe UI, sans-serif" font-size="9" font-weight="700" letter-spacing="0.09em" fill="#6f675f">CONCEPT</text>
        <text x="358" y="340" font-family="Avenir Next, Segoe UI, sans-serif" font-size="15" font-weight="700" fill="#1d1b19">Dark Convergence</text>
        <text x="358" y="361" font-family="Iowan Old Style, Palatino Linotype, Georgia, serif" font-size="12" fill="#544c45">what people flee from when</text><text x="358" y="376" font-family="Iowan Old Style, Palatino Linotype, Georgia, serif" font-size="12" fill="#544c45">disconnection intensifies</text>
      </g>
    

      <g>
        <rect x="1362" y="292" width="190" height="58" rx="18" fill="#dce8dc" stroke="rgba(65,49,34,0.08)" />
        <text x="1378" y="310" font-family="Avenir Next, Segoe UI, sans-serif" font-size="9" font-weight="700" letter-spacing="0.09em" fill="#6f675f">PROJECT</text>
        <text x="1378" y="332" font-family="Avenir Next, Segoe UI, sans-serif" font-size="15" font-weight="700" fill="#1d1b19">mindfulness revolution</text>
        
      </g>
    

      <g>
        <rect x="1112" y="222" width="190" height="58" rx="18" fill="#dce8dc" stroke="rgba(65,49,34,0.08)" />
        <text x="1128" y="240" font-family="Avenir Next, Segoe UI, sans-serif" font-size="9" font-weight="700" letter-spacing="0.09em" fill="#6f675f">PROJECT</text>
        <text x="1128" y="262" font-family="Avenir Next, Segoe UI, sans-serif" font-size="15" font-weight="700" fill="#1d1b19">return to wisdom traditions</text>
        
      </g>
    

      <g>
        <rect x="862" y="292" width="190" height="58" rx="18" fill="#dce8dc" stroke="rgba(65,49,34,0.08)" />
        <text x="878" y="310" font-family="Avenir Next, Segoe UI, sans-serif" font-size="9" font-weight="700" letter-spacing="0.09em" fill="#6f675f">PROJECT</text>
        <text x="878" y="332" font-family="Avenir Next, Segoe UI, sans-serif" font-size="15" font-weight="700" fill="#1d1b19">search for meaning in life</text>
        
      </g>
    

      <g>
        <rect x="612" y="222" width="190" height="58" rx="18" fill="#f0dfd4" stroke="rgba(65,49,34,0.08)" />
        <text x="628" y="240" font-family="Avenir Next, Segoe UI, sans-serif" font-size="9" font-weight="700" letter-spacing="0.09em" fill="#6f675f">SYMPTOM</text>
        <text x="628" y="262" font-family="Avenir Next, Segoe UI, sans-serif" font-size="15" font-weight="700" fill="#1d1b19">mental-health crisis</text>
        
      </g>
    

      <g>
        <rect x="362" y="152" width="190" height="58" rx="18" fill="#f0dfd4" stroke="rgba(65,49,34,0.08)" />
        <text x="378" y="170" font-family="Avenir Next, Segoe UI, sans-serif" font-size="9" font-weight="700" letter-spacing="0.09em" fill="#6f675f">SYMPTOM</text>
        <text x="378" y="192" font-family="Avenir Next, Segoe UI, sans-serif" font-size="15" font-weight="700" fill="#1d1b19">pervasive bullshit</text>
        
      </g>
    

      <g>
        <rect x="112" y="222" width="190" height="58" rx="18" fill="#f0dfd4" stroke="rgba(65,49,34,0.08)" />
        <text x="128" y="240" font-family="Avenir Next, Segoe UI, sans-serif" font-size="9" font-weight="700" letter-spacing="0.09em" fill="#6f675f">SYMPTOM</text>
        <text x="128" y="262" font-family="Avenir Next, Segoe UI, sans-serif" font-size="15" font-weight="700" fill="#1d1b19">nihilism and despair</text>
        
      </g>
    

      <g>
        <rect x="380.3333333333333" y="482" width="230" height="92" rx="18" fill="#ece2f3" stroke="rgba(65,49,34,0.08)" />
        <text x="396.3333333333333" y="500" font-family="Avenir Next, Segoe UI, sans-serif" font-size="9" font-weight="700" letter-spacing="0.09em" fill="#6f675f">CLAIM</text>
        <text x="396.3333333333333" y="522" font-family="Avenir Next, Segoe UI, sans-serif" font-size="15" font-weight="700" fill="#1d1b19">The Meaning Crisis</text>
        <text x="396.3333333333333" y="543" font-family="Iowan Old Style, Palatino Linotype, Georgia, serif" font-size="12" fill="#544c45">one diagnosis beneath many</text><text x="396.3333333333333" y="558" font-family="Iowan Old Style, Palatino Linotype, Georgia, serif" font-size="12" fill="#544c45">symptoms</text>
      </g>
    

      <g>
        <rect x="612.8333333333333" y="664" width="230" height="92" rx="18" fill="#f3dddd" stroke="rgba(65,49,34,0.08)" />
        <text x="628.8333333333333" y="682" font-family="Avenir Next, Segoe UI, sans-serif" font-size="9" font-weight="700" letter-spacing="0.09em" fill="#6f675f">QUESTION</text>
        <text x="628.8333333333333" y="704" font-family="Avenir Next, Segoe UI, sans-serif" font-size="15" font-weight="700" fill="#1d1b19">What is meaning?</text>
        <text x="628.8333333333333" y="725" font-family="Iowan Old Style, Palatino Linotype, Georgia, serif" font-size="12" fill="#544c45">its structure and function</text>
      </g>
    

      <g>
        <rect x="902.8333333333333" y="594" width="230" height="92" rx="18" fill="#f3dddd" stroke="rgba(65,49,34,0.08)" />
        <text x="918.8333333333333" y="612" font-family="Avenir Next, Segoe UI, sans-serif" font-size="9" font-weight="700" letter-spacing="0.09em" fill="#6f675f">QUESTION</text>
        <text x="918.8333333333333" y="634" font-family="Avenir Next, Segoe UI, sans-serif" font-size="15" font-weight="700" fill="#1d1b19">Why do we hunger?</text>
        <text x="918.8333333333333" y="655" font-family="Iowan Old Style, Palatino Linotype, Georgia, serif" font-size="12" fill="#544c45">its role in cognition and</text><text x="918.8333333333333" y="670" font-family="Iowan Old Style, Palatino Linotype, Georgia, serif" font-size="12" fill="#544c45">life</text>
      </g>
    

      <g>
        <rect x="322.8333333333333" y="664" width="230" height="92" rx="18" fill="#f3dddd" stroke="rgba(65,49,34,0.08)" />
        <text x="338.8333333333333" y="682" font-family="Avenir Next, Segoe UI, sans-serif" font-size="9" font-weight="700" letter-spacing="0.09em" fill="#6f675f">QUESTION</text>
        <text x="338.8333333333333" y="704" font-family="Avenir Next, Segoe UI, sans-serif" font-size="15" font-weight="700" fill="#1d1b19">Cultivating wisdom</text>
        <text x="338.8333333333333" y="725" font-family="Iowan Old Style, Palatino Linotype, Georgia, serif" font-size="12" fill="#544c45">how awakening becomes</text><text x="338.8333333333333" y="740" font-family="Iowan Old Style, Palatino Linotype, Georgia, serif" font-size="12" fill="#544c45">practice</text>
      </g>
    

        <rect x="571" y="828" width="510" height="36" rx="12" fill="rgba(255, 252, 245, 0.94)" stroke="rgba(96,74,49,0.06)" />
        <text x="826" y="851" text-anchor="middle" font-family="Iowan Old Style, Palatino Linotype, Georgia, serif" font-size="14" fill="#1d1b19">The meaning crisis is what you feel when you no longer feel at home in the world.</text>
      
</svg>